<?xml version="1.0" standalone="no"?>
<!DOCTYPE svg PUBLIC "-//W3C//DTD SVG 20010904//EN"
 "http://www.w3.org/TR/2001/REC-SVG-20010904/DTD/svg10.dtd">
<svg version="1.0" xmlns="http://www.w3.org/2000/svg"
 width="700.000000pt" height="700.000000pt" viewBox="0 0 700.000000 700.000000"
 preserveAspectRatio="xMidYMid meet">
<metadata>
Created by potrace 1.11, written by Peter Selinger 2001-2013
</metadata>
<g transform="translate(0.000000,700.000000) scale(0.100000,-0.100000)"
fill="#000000" stroke="none">
<path d="M0 6150 l0 -850 65 0 65 0 0 785 0 785 3370 0 3370 0 2 -1757 3
-1758 60 0 60 0 3 1823 2 1822 -3500 0 -3500 0 0 -850z"/>
<path d="M3695 5134 c-6 -1 -26 -5 -46 -8 -53 -9 -123 -60 -157 -114 -44 -69
-65 -152 -65 -257 1 -104 20 -181 64 -250 40 -63 80 -99 205 -186 183 -126
226 -200 228 -394 3 -206 -80 -319 -231 -311 -105 6 -184 85 -209 211 -5 22
-9 43 -10 48 -1 4 -2 18 -3 32 -1 23 -5 25 -45 25 -43 0 -43 0 -40 -32 4 -36
14 -97 18 -113 2 -5 6 -23 11 -40 39 -147 147 -229 299 -226 190 3 302 171
295 441 -5 208 -74 322 -278 460 -97 64 -137 99 -168 145 -60 88 -70 265 -20
366 34 69 79 101 149 105 116 6 185 -71 213 -238 3 -21 9 -38 13 -39 75 -11
79 -4 63 92 -21 129 -75 215 -162 260 -22 10 -39 18 -39 16 0 -3 -17 -1 -38 3
-21 3 -42 5 -47 4z"/>
<path d="M19 5115 c-7 -1 -3 -87 4 -92 5 -3 69 -5 143 -5 l134 0 2 -741 3
-742 38 -2 c35 -2 37 -1 38 30 0 18 1 352 2 742 l2 710 100 2 c55 1 119 2 143
2 l43 1 -3 48 -3 47 -322 0 c-178 0 -324 0 -324 0z"/>
<path d="M810 5066 c-1 -73 -1 -1476 -1 -1508 1 -26 4 -27 39 -24 l37 3 5 379
5 380 121 -2 c137 -2 179 -15 220 -70 44 -58 54 -119 59 -379 3 -132 7 -249 9
-260 3 -11 5 -27 5 -36 1 -13 11 -17 42 -16 l40 1 -6 125 c-3 70 -7 198 -10
286 -5 159 -6 172 -20 230 -9 35 -42 104 -59 120 -6 6 -23 19 -37 29 l-27 17
52 52 c71 70 96 142 103 292 10 215 -49 351 -177 408 -39 17 -68 20 -222 22
l-178 1 0 -50z m343 -57 c51 -14 109 -74 126 -128 20 -69 22 -81 22 -162 1
-133 -29 -229 -89 -282 -36 -32 -92 -45 -209 -46 l-113 -2 0 316 0 315 113 0
c61 0 129 -5 150 -11z"/>
<path d="M1845 5110 c-2 -3 -26 -125 -55 -270 -28 -146 -58 -299 -66 -340 -9
-41 -17 -86 -20 -100 -3 -14 -18 -95 -35 -180 -17 -85 -33 -166 -35 -180 -3
-14 -25 -127 -49 -251 -25 -125 -45 -233 -45 -241 0 -19 79 -20 81 -1 1 7 2
16 3 21 4 17 18 89 22 112 3 14 18 95 34 180 16 85 32 170 35 189 3 19 8 38
11 43 3 4 81 8 174 8 l168 0 15 -67 c8 -38 27 -133 42 -213 15 -80 35 -176 44
-215 l16 -70 40 0 c48 1 47 -6 12 165 -9 41 -19 91 -22 110 -3 19 -10 51 -15
70 -5 19 -11 49 -13 65 -3 17 -8 41 -11 55 -3 14 -8 36 -11 50 -2 14 -14 70
-25 125 -11 55 -22 109 -24 120 -2 11 -16 79 -31 150 -15 72 -29 141 -31 155
-3 14 -23 113 -44 220 -22 107 -42 206 -45 220 -15 79 -12 75 -66 76 -28 0
-52 -2 -54 -6z m59 -145 c5 -32 75 -405 92 -490 2 -11 15 -76 28 -145 14 -68
24 -125 23 -126 -3 -3 -189 -7 -258 -5 l-47 1 13 63 c7 34 16 78 19 98 3 20 8
42 10 50 3 8 7 30 10 49 3 19 7 44 10 55 5 27 34 182 41 225 4 19 15 85 26
145 10 61 19 114 19 119 0 21 9 -2 14 -39z"/>
<path d="M2244 5082 c3 -20 8 -48 11 -62 2 -14 16 -86 30 -160 15 -74 37 -189
50 -255 13 -66 26 -131 29 -145 9 -51 77 -407 92 -480 9 -41 18 -86 20 -100 3
-14 16 -81 29 -150 13 -69 27 -137 29 -152 3 -15 7 -32 11 -37 6 -10 91 -9
101 1 3 3 32 136 64 294 32 159 68 333 79 388 12 54 23 108 25 120 3 11 10 46
16 76 6 30 14 69 16 85 3 17 7 37 10 45 3 8 8 26 10 40 3 14 18 90 35 170 17
80 33 159 35 175 3 17 12 58 20 93 20 88 20 88 -26 88 -22 0 -40 0 -40 -1 0
-1 -27 -133 -60 -295 -33 -161 -62 -305 -65 -319 -2 -14 -23 -114 -45 -221
-40 -192 -101 -502 -116 -590 l-7 -45 -13 60 c-7 33 -15 80 -18 105 -12 88
-23 151 -120 660 -25 129 -47 246 -49 260 -3 14 -10 52 -16 85 -6 33 -13 71
-16 85 -3 14 -12 66 -21 115 -9 50 -18 92 -20 94 -2 2 -22 5 -45 7 l-41 3 6
-37z"/>
<path d="M3120 4325 l0 -791 40 -1 40 -1 0 792 0 791 -40 0 -40 0 0 -790z"/>
<path d="M0 1673 l0 -1673 3500 0 3500 0 0 700 0 700 -65 0 -65 0 0 -635 0
-635 -3370 0 -3370 0 0 1608 0 1608 -65 0 -65 1 0 -1674z"/>
<path d="M3410 3202 c-1 -47 -1 -1466 -1 -1483 1 -14 18 -16 126 -16 l125 1 1
35 c1 20 1 43 0 51 -1 8 7 2 17 -15 43 -66 94 -93 172 -89 115 5 190 83 230
239 26 101 34 192 34 370 -1 389 -67 543 -241 558 -77 7 -141 -25 -185 -92
-17 -25 -18 -17 -18 221 l0 247 -130 0 -130 0 0 -27z m415 -657 c18 -36 20
-62 22 -245 2 -226 -7 -297 -43 -331 -43 -40 -106 -19 -119 40 -3 14 -8 37
-10 51 -8 36 -7 368 0 414 15 88 39 117 95 113 30 -2 38 -8 55 -42z"/>
<path d="M5080 3100 c-5 -3 -11 -64 -12 -135 l-3 -129 -50 -1 -50 0 -1 -120
c0 -66 1 -125 3 -131 2 -6 25 -10 53 -9 l50 2 0 -338 c0 -354 6 -415 43 -471
35 -52 79 -71 172 -76 106 -6 155 9 156 46 1 30 1 181 0 197 -1 6 -17 10 -38
11 -70 2 -70 5 -69 336 l1 293 61 0 60 -1 0 131 -1 130 -50 1 c-27 1 -55 2
-61 3 -8 1 -11 41 -10 131 1 80 -3 130 -9 131 -39 5 -237 4 -245 -1z"/>
<path d="M5800 2846 c-97 -20 -156 -69 -209 -175 -51 -100 -71 -219 -71 -405
0 -127 3 -167 27 -296 10 -58 48 -142 81 -180 67 -80 141 -109 260 -106 175 6
291 126 317 329 l7 47 -126 0 c-94 0 -126 -3 -127 -12 -5 -89 -56 -136 -115
-109 -35 15 -53 66 -60 166 l-7 85 219 2 219 3 -1 135 c0 158 -16 250 -56 340
-66 147 -193 209 -358 176z m105 -242 c27 -11 45 -60 50 -134 l4 -71 -87 3
-87 3 0 30 c-1 59 17 130 38 153 20 22 50 28 82 16z"/>
<path d="M6567 2849 c-102 -16 -180 -79 -218 -176 -32 -82 -32 -245 0 -318 31
-70 102 -132 221 -195 121 -64 143 -90 137 -163 -5 -55 -25 -76 -74 -77 -39 0
-68 34 -78 90 -4 21 -12 40 -18 42 -7 3 -61 4 -122 3 l-110 -1 0 -29 c-1 -45
22 -141 44 -183 78 -149 296 -203 467 -114 96 49 156 185 149 340 -7 162 -71
246 -257 342 -118 61 -142 88 -135 149 11 103 117 92 132 -13 l7 -44 114 0
c128 0 125 -2 112 86 -29 190 -174 292 -371 261z"/>
<path d="M4870 1961 c-9 -9 -47 -54 -85 -101 -39 -47 -78 -94 -88 -105 -47
-51 -46 -53 77 -52 134 0 123 -15 116 158 -5 105 -6 114 -20 100z"/>
</g>
</svg>
