<svg xmlns="http://www.w3.org/2000/svg" viewBox="0 0 814.32 427.87"><defs><style>.cls-1{fill:#fff;}.cls-2{fill:none;stroke:#fff;stroke-miterlimit:10;stroke-width:15px;}</style></defs><title>tb rect logo</title><g id="Layer_2" data-name="Layer 2"><g id="Layer_1-2" data-name="Layer 1"><path class="cls-1" d="M397.46,247h30.82l0,57.56c3.62-7.57,10.67-14.14,22.35-14.15,20.75,0,30,20.94,30,64.61,0,47.71-8.83,72.71-33,72.72-12.89,0-17.33-7.82-20.15-13.88,0,2.78-.2,7.83-.6,11.61H397.34c.2-10.6.19-24.74.18-35.34ZM439,321.2c-8.46,0-11.28,7.07-11.26,37.87,0,31,2.23,38.12,10.7,38.11,8.66,0,11.28-10.1,11.26-40.65C449.68,331.55,448.06,321.2,439,321.2Z"/><path class="cls-1" d="M570.78,392.58c0,9.09.62,26.25.82,32.82H543.8a94.73,94.73,0,0,1-1.21-11.61c-5,9.09-12.48,13.89-23.56,13.9-18.74,0-28.21-18.16-28.22-40.88,0-29,15.69-43.68,41.28-43.69a82.11,82.11,0,0,1,8.46.25V330.5c0-7.32-.81-13.38-8.27-13.38-7.05,0-8.26,5.56-8.66,15.15H494.8c.39-23.48,9.45-41.91,38.66-41.92,24.58,0,37.27,12.6,37.29,39.87Zm-29.83-25a42.14,42.14,0,0,0-5.84-.25c-10.68,0-13.9,7.07-13.89,16.16,0,7.57,2.42,14.13,9.07,14.13,9.07,0,10.67-8.84,10.67-23.73Z"/><path class="cls-1" d="M579.79,292.61h12.69V261.3h30.42v31.3h14.5v30.55h-14.5l0,63.36c0,7.07,1.21,10.6,8.06,10.6a31,31,0,0,0,4.83-.26v27.52c-5.24,2.53-12.89,2.78-17.12,2.79-19.94,0-26.6-9.58-26.61-33.81l0-70.18H579.8Z"/><path class="cls-1" d="M675.31,368.3c0,17.17,1.42,30.54,11.09,30.54,8.46,0,9.87-9.09,10.07-15.15h29.41c-.6,9.09-3.81,44.18-40.07,44.2-35.25,0-41.11-33.81-41.13-69.91,0-44.68,14.27-67.66,41.67-67.67,31.23,0,40.3,26.74,40.32,63.34,0,3.28-.19,13.13-.4,14.64Zm20.94-24.5c0-12.88-.41-25-10.08-25s-10.47,12.63-10.46,25Z"/><path class="cls-1" d="M765.57,384.16c0,8.08,2.42,16.16,10.28,16.15,6,0,8.66-4,8.66-10.86,0-7.57-2.83-11.36-14.31-16.66-24.58-11.35-31.44-21.95-31.45-42.9,0-19.94,9.65-39.64,36.24-39.65,31,0,36.88,24.72,36.89,41.38h-27.8c0-5.81-.61-15.15-8.87-15.14-4.84,0-7.45,3.79-7.45,9.6,0,7.07,3.23,10.35,15.32,15.9,22.57,10.34,31.24,21.7,31.25,42.9,0,26.76-12.27,42.67-39.06,42.68-29,0-38.49-21.19-38.7-43.4Z"/><path class="cls-1" d="M33.35,37.35,0,37.36V25.94l76.32,0V37.33L43,37.34l.08,173.81H33.44Z"/><path class="cls-1" d="M102.23,121.91l0,89.22H92.86L92.77,25.9l33.78,0c23.09,0,34.64,17.66,34.65,46s-10.46,40.26-19.86,44.07c14.75,5.7,18.18,22.84,18.19,47.86v7.34c0,15,.44,29.92,2.16,40h-9.83c-1.93-8.43-1.94-26.11-1.94-40.53v-6c0-27.47-4.08-42.7-25.89-42.69Zm0-11.15h22.66c19,0,26.07-15.52,26.06-38.64,0-20.4-7.29-35.08-25.24-35.08H102.19Z"/><path class="cls-1" d="M200.35,144.71l-12.58,66.38h-9.62l36-185.25h12.4l37.5,185.22H253.83l-13.07-66.36Zm38-11.44c-10.29-51.68-16.5-82.68-18.22-95.46h-.43c-2.13,15.51-9,52.23-17.27,95.48Z"/><path class="cls-1" d="M296.16,211l-36-185.22h10.26l17.79,93.83c5.14,26.65,11.79,62,13.72,78.6h.43c1.92-14.15,9.81-51.69,15.36-78.89l19-93.58h9.83L308.34,211Z"/><path class="cls-1" d="M373,25.77,373.11,211h-9.41l-.09-185.23Z"/><path class="cls-1" d="M404.51,164.47c1.08,21.22,9.64,37.53,27.38,37.52,16.67,0,26.29-10.89,26.28-37,0-22-6.43-33.45-27.17-46.23-21.38-13-31.65-25.55-31.66-51.94,0-22.85,11.31-43.25,33.54-43.26,25,0,32.29,23.92,32.73,44.32H456.2c-.65-8.16-2.79-33.18-24-33.17-16.46,0-23.08,14.7-23.07,30.75,0,20.67,7.07,30.46,26.1,41.88,25,15.49,32.94,31.27,32.95,56.83,0,29.38-12.38,49-36.53,49-26.51,0-35.71-22.29-37-48.67Z"/><line class="cls-2" x1="0.74" y1="7.5" x2="813.74" y2="7.5"/><line class="cls-2" x1="806.74" y1="285.5" x2="806.74"/><line class="cls-2" x1="385.92" y1="415.92" x2="5.24" y2="417.08"/><line class="cls-2" x1="8.53" y1="47.5" x2="8.53" y2="424.57"/></g></g></svg>