<svg xmlns="http://www.w3.org/2000/svg" viewBox="0 0 820 820"><defs><style>.cls-1{fill:none;stroke:#fff;stroke-miterlimit:10;stroke-width:15px;}.cls-2{fill:#fff;}</style></defs><title>tb square logo</title><g id="Layer_2" data-name="Layer 2"><g id="Layer_1-2" data-name="Layer 1"><polyline class="cls-1" points="812.5 427 812.5 7.5 7.5 7.5 7.5 199"/><polyline class="cls-1" points="7.5 428 7.5 812.5 812.5 812.5 812.5 656"/><path class="cls-2" d="M399.2,442H430v57.56c3.63-7.57,10.68-14.14,22.36-14.14,20.75,0,30,21,30,64.62,0,47.71-8.86,72.7-33,72.7-12.89,0-17.32-7.83-20.15-13.88,0,2.78-.2,7.83-.6,11.61H399c.2-10.6.2-24.74.2-35.34Zm41.5,74.22c-8.46,0-11.28,7.07-11.28,37.87,0,31,2.22,38.12,10.68,38.12,8.66,0,11.28-10.1,11.28-40.64C451.38,526.57,449.77,516.22,440.7,516.22Z"/><path class="cls-2" d="M572.45,587.66c0,9.09.6,26.25.81,32.82h-27.8a94.73,94.73,0,0,1-1.21-11.61c-5,9.09-12.49,13.88-23.57,13.88-18.74,0-28.2-18.18-28.2-40.9,0-29,15.71-43.67,41.3-43.67a82.11,82.11,0,0,1,8.46.25V525.56c0-7.32-.81-13.38-8.26-13.38-7.05,0-8.26,5.55-8.66,15.15H496.5c.4-23.48,9.47-41.91,38.68-41.91,24.58,0,37.27,12.62,37.27,39.88Zm-29.82-25a42.14,42.14,0,0,0-5.84-.25c-10.68,0-13.9,7.07-13.9,16.16,0,7.57,2.42,14.14,9.07,14.14,9.07,0,10.68-8.83,10.68-23.73Z"/><path class="cls-2" d="M581.51,487.69H594.2v-31.3h30.42v31.3h14.5v30.55h-14.5V581.6c0,7.07,1.21,10.6,8.06,10.6a31,31,0,0,0,4.83-.25v27.52c-5.24,2.52-12.89,2.78-17.12,2.78-19.94,0-26.59-9.59-26.59-33.83V518.24H581.51Z"/><path class="cls-2" d="M677,563.42c0,17.17,1.41,30.55,11.08,30.55,8.46,0,9.87-9.09,10.07-15.15h29.41c-.6,9.09-3.83,44.18-40.09,44.18-35.25,0-41.1-33.83-41.1-69.93,0-44.68,14.3-67.65,41.7-67.65,31.23,0,40.29,26.76,40.29,63.36,0,3.28-.2,13.13-.4,14.64Zm21-24.49c0-12.88-.4-25-10.07-25s-10.48,12.62-10.48,25Z"/><path class="cls-2" d="M767.24,579.33c0,8.08,2.42,16.16,10.27,16.16,6,0,8.66-4,8.66-10.85,0-7.57-2.82-11.36-14.3-16.66-24.58-11.36-31.43-22-31.43-42.91,0-19.94,9.67-39.63,36.26-39.63,31,0,36.87,24.74,36.87,41.4h-27.8c0-5.81-.6-15.15-8.86-15.15-4.84,0-7.45,3.79-7.45,9.59,0,7.07,3.22,10.35,15.31,15.9C807.33,547.52,816,558.88,816,580.09c0,26.76-12.29,42.66-39.08,42.66-29,0-38.48-21.21-38.68-43.42Z"/><path class="cls-2" d="M35.19,232.17H1.84V220.75H78.16v11.42H44.81V406H35.19Z"/><path class="cls-2" d="M104,316.77V406H94.62V220.75h33.78c23.09,0,34.63,17.68,34.63,46S152.55,307,143.15,310.78c14.75,5.71,18.17,22.85,18.17,47.87V366c0,15,.43,29.92,2.14,40h-9.83c-1.92-8.43-1.92-26.11-1.92-40.53v-6c0-27.47-4.06-42.7-25.87-42.7Zm0-11.15h22.66c19,0,26.08-15.5,26.08-38.62,0-20.4-7.27-35.09-25.23-35.09H104Z"/><path class="cls-2" d="M202.14,339.61,189.53,406h-9.62L216,220.75h12.4L265.85,406H255.59l-13-66.37Zm38.05-11.42c-10.26-51.68-16.46-82.69-18.17-95.47h-.43c-2.14,15.5-9,52.22-17.32,95.47Z"/><path class="cls-2" d="M297.91,406,262,220.75h10.26L290,314.59c5.13,26.66,11.76,62,13.68,78.61h.43c1.92-14.14,9.83-51.68,15.39-78.88l19-93.57h9.83L310.1,406Z"/><path class="cls-2" d="M374.87,220.75V406h-9.41V220.75Z"/><path class="cls-2" d="M406.29,359.47c1.07,21.22,9.62,37.54,27.36,37.54,16.67,0,26.29-10.88,26.29-37,0-22-6.41-33.46-27.15-46.24-21.38-13.06-31.64-25.57-31.64-52,0-22.85,11.33-43.25,33.56-43.25,25,0,32.28,23.94,32.71,44.34H458c-.64-8.16-2.78-33.18-23.94-33.18-16.46,0-23.09,14.69-23.09,30.74,0,20.67,7.05,30.46,26.08,41.89,25,15.5,32.92,31.28,32.92,56.85,0,29.38-12.4,49-36.56,49-26.51,0-35.7-22.3-37-48.69Z"/></g></g></svg>